<svg baseProfile="basic" xmlns="http://www.w3.org/2000/svg" viewBox="0 0 700.7 140.7"><g fill="#060A0F"><path d="M157.4 90.4V46.9h19.2c7 0 12.9 6 12.9 12.9 0 3-1.1 5.7-2.8 7.8 3 2.4 4.9 6 4.9 10 0 6.9-5.9 12.8-12.8 12.8h-21.4zm16.9-26.5c2.1 0 3.8-1.7 3.8-3.8 0-2.1-1.7-3.8-3.8-3.8h-5.5v7.5h5.5zm2.2 17.1c2.1 0 3.8-1.7 3.8-3.8s-1.8-3.8-3.8-3.8h-7.7V81h7.7zM198.5 46.9h11.4v32h15.7v11.5h-27.1V46.9zM230.9 90.4l20.3-43.5h5.2l20.5 43.5h-11.4l-2.7-5.7H245l-2.6 5.7h-11.5zm18.5-15.3h8.9l-4.4-9.6-4.5 9.6zM308.1 61.3c-1.8-1.8-4.4-2.8-7.3-2.8-5.9 0-10.2 4.3-10.2 10.2 0 5.9 4.3 10.2 10.2 10.2 3 0 5.5-1 7.3-2.9l8.1 8c-3.9 3.9-9.4 6.4-15.4 6.4-12 0-21.8-9.8-21.8-21.8s9.8-21.8 21.8-21.8c6 0 11.4 2.4 15.3 6.3l-8 8.2zM367 46.9l-19.9 19.9 23.6 23.6h-16.1L339.1 75l-2.7 2.8v12.7H325V46.9h11.4v14.7L351 46.9h16zM374.7 46.9H393c8.8 0 16 7.2 16 16s-7.1 16-15.8 16h-7.1v11.6h-11.4V46.9zM386.1 69h7.1c3.5 0 6.3-2.7 6.3-6.2s-2.8-6.3-6.3-6.3h-7.1V69zM410 90.4l20.3-43.5h5.2L456 90.4h-11.4l-2.7-5.7H424l-2.6 5.7H410zm18.5-15.3h8.9l-4.4-9.6-4.5 9.6zM487 90.4l-6.7-11.6h-7.1v11.6h-11.4V46.9h18.3c8.8 0 16 7.2 16 16 0 4.6-2 8.8-5.2 11.7l9.2 15.8H487zM473.2 69h7.1c3.5 0 6.3-2.7 6.3-6.2s-2.8-6.3-6.3-6.3h-7.1V69zM504.1 90.4l20.3-43.5h5.2L550 90.4h-11.4l-2.7-5.7h-17.8l-2.6 5.7h-11.4zm18.5-15.3h8.9l-4.4-9.6-4.5 9.6zM555.8 46.9H572c12 0 21.8 9.8 21.8 21.8S584 90.4 572 90.4h-16.1V46.9zm11.4 32.3h4.8c5.7 0 10.3-4.6 10.3-10.3 0-5.6-4.6-10.3-10.3-10.3h-4.8v20.6zM621.6 46.9c12 0 21.8 9.8 21.8 21.8s-9.8 21.7-21.8 21.7-21.7-9.7-21.7-21.7 9.7-21.8 21.7-21.8zm0 11.4c-5.7 0-10.3 4.6-10.3 10.4 0 5.7 4.6 10.4 10.3 10.4 5.7 0 10.4-4.7 10.4-10.4 0-5.8-4.6-10.4-10.4-10.4zM691.9 46.9l-14.5 20.8 16 22.7h-13.9l-9-12.8-9.1 12.8h-13.9l16-22.7L649 46.9h13.9l7.6 10.9 7.5-10.9h13.9z"/><g><path d="M110.7 91.6l25-25-30.4-30.4H58.9v10.9h41.9l19.5 19.5-9.6 9.6z"/><path d="M67.9 6.1L37.5 36.5v44.9h10.9V41l19.5-19.5 9.6 9.6h15.3zM94.5 59.3v40.4L75 119.2l-9.6-9.6H50l25 24.9 30.3-30.3V59.3z"/><path d="M42.2 93.3L22.7 73.8l9.6-9.5V48.9l-25 24.9 30.4 30.4h44.9V93.3z"/></g></g></svg>